<mxfile host="Electron" modified="2024-05-07T08:41:37.732Z" agent="Mozilla/5.0 (Windows NT 10.0; Win64; x64) AppleWebKit/537.36 (KHTML, like Gecko) draw.io/23.0.2 Chrome/120.0.6099.109 Electron/28.1.0 Safari/537.36" etag="FqdbCnvg_NDoKWB2ZA_o" version="23.0.2" type="device">
  <diagram name="Page-1" id="HYgGWwNNdK_UoVm3y7TK">
    <mxGraphModel dx="1434" dy="844" grid="1" gridSize="10" guides="1" tooltips="1" connect="1" arrows="1" fold="1" page="1" pageScale="1" pageWidth="1169" pageHeight="827" math="0" shadow="0">
      <root>
        <mxCell id="0" />
        <mxCell id="1" parent="0" />
        <mxCell id="ZK1Jpx5obfyhik6o4wZ0-1" value="UseCase" style="shape=umlFrame;whiteSpace=wrap;html=1;rounded=1;shadow=0;comic=0;labelBackgroundColor=none;strokeWidth=1;fontFamily=Verdana;fontSize=12;align=center;" parent="1" vertex="1">
          <mxGeometry x="420" y="120" width="360" height="470" as="geometry" />
        </mxCell>
        <mxCell id="ZK1Jpx5obfyhik6o4wZ0-2" value="Admin" style="shape=umlActor;verticalLabelPosition=bottom;verticalAlign=top;html=1;outlineConnect=0;" parent="1" vertex="1">
          <mxGeometry x="330" y="200" width="30" height="60" as="geometry" />
        </mxCell>
        <mxCell id="ZK1Jpx5obfyhik6o4wZ0-3" value="Utilisateur" style="shape=umlActor;verticalLabelPosition=bottom;verticalAlign=top;html=1;outlineConnect=0;" parent="1" vertex="1">
          <mxGeometry x="330" y="510" width="30" height="60" as="geometry" />
        </mxCell>
        <mxCell id="ZK1Jpx5obfyhik6o4wZ0-4" value="Déconnexion" style="ellipse;whiteSpace=wrap;html=1;" parent="1" vertex="1">
          <mxGeometry x="563" y="130" width="120" height="80" as="geometry" />
        </mxCell>
        <mxCell id="ZK1Jpx5obfyhik6o4wZ0-5" value="" style="endArrow=classic;html=1;rounded=0;" parent="1" source="ZK1Jpx5obfyhik6o4wZ0-2" target="ZK1Jpx5obfyhik6o4wZ0-4" edge="1">
          <mxGeometry width="50" height="50" relative="1" as="geometry">
            <mxPoint x="190" y="390" as="sourcePoint" />
            <mxPoint x="320" y="340" as="targetPoint" />
          </mxGeometry>
        </mxCell>
        <mxCell id="ZK1Jpx5obfyhik6o4wZ0-6" value="Gestion CRUD des comptes parents" style="ellipse;whiteSpace=wrap;html=1;" parent="1" vertex="1">
          <mxGeometry x="520" y="310" width="120" height="80" as="geometry" />
        </mxCell>
        <mxCell id="ZK1Jpx5obfyhik6o4wZ0-8" value="S&#39;enregistrer" style="ellipse;whiteSpace=wrap;html=1;" parent="1" vertex="1">
          <mxGeometry x="510" y="500" width="120" height="80" as="geometry" />
        </mxCell>
        <mxCell id="ZK1Jpx5obfyhik6o4wZ0-13" value="Connexion" style="ellipse;whiteSpace=wrap;html=1;" parent="1" vertex="1">
          <mxGeometry x="563" y="220" width="120" height="80" as="geometry" />
        </mxCell>
        <mxCell id="ZK1Jpx5obfyhik6o4wZ0-14" value="" style="endArrow=classic;html=1;rounded=0;" parent="1" source="ZK1Jpx5obfyhik6o4wZ0-2" target="ZK1Jpx5obfyhik6o4wZ0-13" edge="1">
          <mxGeometry width="50" height="50" relative="1" as="geometry">
            <mxPoint x="20" y="360" as="sourcePoint" />
            <mxPoint x="70" y="310" as="targetPoint" />
          </mxGeometry>
        </mxCell>
        <mxCell id="ZK1Jpx5obfyhik6o4wZ0-17" value="Parent" style="shape=umlActor;verticalLabelPosition=bottom;verticalAlign=top;html=1;outlineConnect=0;" parent="1" vertex="1">
          <mxGeometry x="890" y="270" width="30" height="60" as="geometry" />
        </mxCell>
        <mxCell id="ZK1Jpx5obfyhik6o4wZ0-19" value="" style="endArrow=classic;html=1;rounded=0;" parent="1" source="ZK1Jpx5obfyhik6o4wZ0-17" target="ZK1Jpx5obfyhik6o4wZ0-4" edge="1">
          <mxGeometry width="50" height="50" relative="1" as="geometry">
            <mxPoint x="60" y="420" as="sourcePoint" />
            <mxPoint x="110" y="370" as="targetPoint" />
          </mxGeometry>
        </mxCell>
        <mxCell id="ZK1Jpx5obfyhik6o4wZ0-20" value="" style="endArrow=classic;html=1;rounded=0;" parent="1" source="ZK1Jpx5obfyhik6o4wZ0-17" target="ZK1Jpx5obfyhik6o4wZ0-13" edge="1">
          <mxGeometry width="50" height="50" relative="1" as="geometry">
            <mxPoint x="180" y="410" as="sourcePoint" />
            <mxPoint x="230" y="360" as="targetPoint" />
          </mxGeometry>
        </mxCell>
        <mxCell id="ZK1Jpx5obfyhik6o4wZ0-23" value="" style="endArrow=classic;html=1;rounded=0;" parent="1" source="ZK1Jpx5obfyhik6o4wZ0-2" target="ZK1Jpx5obfyhik6o4wZ0-6" edge="1">
          <mxGeometry width="50" height="50" relative="1" as="geometry">
            <mxPoint x="130" y="380" as="sourcePoint" />
            <mxPoint x="180" y="330" as="targetPoint" />
          </mxGeometry>
        </mxCell>
        <mxCell id="ZK1Jpx5obfyhik6o4wZ0-26" value="Création de stage" style="ellipse;whiteSpace=wrap;html=1;" parent="1" vertex="1">
          <mxGeometry x="650" y="300" width="120" height="80" as="geometry" />
        </mxCell>
        <mxCell id="ZK1Jpx5obfyhik6o4wZ0-27" value="" style="endArrow=classic;html=1;rounded=0;" parent="1" source="ZK1Jpx5obfyhik6o4wZ0-2" target="ZK1Jpx5obfyhik6o4wZ0-26" edge="1">
          <mxGeometry width="50" height="50" relative="1" as="geometry">
            <mxPoint x="180" y="370" as="sourcePoint" />
            <mxPoint x="230" y="320" as="targetPoint" />
          </mxGeometry>
        </mxCell>
        <mxCell id="9aGshw8cN24CJB32aOtb-1" value="Gestion CRUD des comptes enseignants" style="ellipse;whiteSpace=wrap;html=1;" vertex="1" parent="1">
          <mxGeometry x="430" y="400" width="120" height="80" as="geometry" />
        </mxCell>
        <mxCell id="9aGshw8cN24CJB32aOtb-2" value="" style="endArrow=classic;html=1;rounded=0;" edge="1" parent="1" source="ZK1Jpx5obfyhik6o4wZ0-2" target="9aGshw8cN24CJB32aOtb-1">
          <mxGeometry width="50" height="50" relative="1" as="geometry">
            <mxPoint x="90" y="380" as="sourcePoint" />
            <mxPoint x="140" y="330" as="targetPoint" />
          </mxGeometry>
        </mxCell>
        <mxCell id="9aGshw8cN24CJB32aOtb-3" value="" style="endArrow=classic;html=1;rounded=0;" edge="1" parent="1" source="ZK1Jpx5obfyhik6o4wZ0-3" target="ZK1Jpx5obfyhik6o4wZ0-8">
          <mxGeometry width="50" height="50" relative="1" as="geometry">
            <mxPoint x="80" y="570" as="sourcePoint" />
            <mxPoint x="130" y="520" as="targetPoint" />
          </mxGeometry>
        </mxCell>
        <mxCell id="9aGshw8cN24CJB32aOtb-4" value="Consultation des stages" style="ellipse;whiteSpace=wrap;html=1;" vertex="1" parent="1">
          <mxGeometry x="580" y="420" width="120" height="80" as="geometry" />
        </mxCell>
        <mxCell id="9aGshw8cN24CJB32aOtb-5" value="" style="endArrow=classic;html=1;rounded=0;" edge="1" parent="1" source="ZK1Jpx5obfyhik6o4wZ0-3" target="9aGshw8cN24CJB32aOtb-4">
          <mxGeometry width="50" height="50" relative="1" as="geometry">
            <mxPoint y="570" as="sourcePoint" />
            <mxPoint x="50" y="520" as="targetPoint" />
          </mxGeometry>
        </mxCell>
        <mxCell id="9aGshw8cN24CJB32aOtb-6" value="" style="endArrow=classic;html=1;rounded=0;" edge="1" parent="1" source="ZK1Jpx5obfyhik6o4wZ0-17" target="9aGshw8cN24CJB32aOtb-4">
          <mxGeometry width="50" height="50" relative="1" as="geometry">
            <mxPoint x="1060" y="590" as="sourcePoint" />
            <mxPoint x="1110" y="540" as="targetPoint" />
          </mxGeometry>
        </mxCell>
        <mxCell id="9aGshw8cN24CJB32aOtb-7" value="" style="endArrow=classic;html=1;rounded=0;" edge="1" parent="1" source="ZK1Jpx5obfyhik6o4wZ0-2" target="9aGshw8cN24CJB32aOtb-4">
          <mxGeometry width="50" height="50" relative="1" as="geometry">
            <mxPoint x="210" y="330" as="sourcePoint" />
            <mxPoint x="260" y="280" as="targetPoint" />
          </mxGeometry>
        </mxCell>
      </root>
    </mxGraphModel>
  </diagram>
</mxfile>
